<svg xmlns="http://www.w3.org/2000/svg" xmlns:xlink="http://www.w3.org/1999/xlink" width="406" height="232" viewBox="0 0 406 232">
  <defs>
    <clipPath id="clip-Web_1920_1">
      <rect width="406" height="232"/>
    </clipPath>
  </defs>
  <g id="Web_1920_1" data-name="Web 1920 – 1" clip-path="url(#clip-Web_1920_1)">
    <rect width="406" height="232" fill="rgba(255,255,255,0)"/>
    <g id="pharmacy" transform="translate(7.278 -9.172)">
      <g id="Group_1" data-name="Group 1" transform="translate(0 16.172)">
        <path id="Path_1" data-name="Path 1" d="M218.372,51.125H153.449c-17.7,0-32.945,12.556-37.072,30.535l-.006.026-.661,2.954V61.115c9.793-2.207,17.154-11.33,17.154-22.217,0-12.531-9.753-22.726-21.741-22.726s-21.74,10.2-21.74,22.726c0,11.062,7.6,20.3,17.626,22.318V84.639l-.661-2.954-.006-.026c-4.126-17.978-19.37-30.535-37.072-30.535H4.35A4.472,4.472,0,0,0,0,55.709v3.742A23.807,23.807,0,0,0,11.967,80.293v1.94a23.811,23.811,0,0,0,11.966,20.842v1.94c0,13.027,10.14,23.625,22.6,23.625h60.476V143.1H84.621c-8.69,0-15.76,7.461-15.76,16.631s7.07,16.631,15.76,16.631h22.391v14.711H85.452c-7.645,0-13.864,6.562-13.864,14.63s6.219,14.63,13.864,14.63h21.559v11.145a4.356,4.356,0,1,0,8.7,0V220.332h34.272a4.591,4.591,0,0,0,0-9.169H115.711V200.242h22.963c8.634,0,15.659-7.413,15.659-16.524s-7.024-16.524-15.659-16.524H115.711V152.269h23.082c8.569,0,15.541-7.356,15.541-16.4a16.981,16.981,0,0,0-1.584-7.23h23.438c12.462,0,22.6-10.6,22.6-23.625v-1.94a23.812,23.812,0,0,0,11.966-20.842v-1.94a23.809,23.809,0,0,0,11.967-20.842V55.709a4.472,4.472,0,0,0-4.35-4.584ZM98.085,38.9a13.05,13.05,0,1,1,26.081,0,13.05,13.05,0,1,1-26.081,0Zm-51.55,80.573a14.166,14.166,0,0,1-13.878-13.614h30.4a4.591,4.591,0,0,0,0-9.169H34.568A14.166,14.166,0,0,1,20.69,83.075h1.553c.078,0,.156.007.235.007H62.645a4.591,4.591,0,0,0,0-9.169H22.838c-.078,0-.156-.007-.235-.007A14.165,14.165,0,0,1,8.724,60.293H69.273c13.666,0,25.429,9.666,28.612,23.508l7.981,35.67Zm60.476,91.692H85.452a5.469,5.469,0,0,1,0-10.922h21.559Zm31.664-34.8a7.367,7.367,0,0,1,0,14.711H115.711V176.363Zm-31.664-9.169H84.621a7.474,7.474,0,0,1,0-14.925h22.391Zm38.622-31.324a7.051,7.051,0,0,1-6.84,7.23H115.711V128.64h22.61a7.112,7.112,0,0,1,7.312,7.23ZM200.12,73.907c-.079,0-.157,0-.235.007H179.019a4.591,4.591,0,0,0,0,9.169h23.013a14.166,14.166,0,0,1-13.878,13.607H159.671a4.591,4.591,0,0,0,0,9.169h30.4a14.166,14.166,0,0,1-13.878,13.614H116.856l7.981-35.67c3.182-13.842,14.946-23.508,28.612-23.508H214A14.166,14.166,0,0,1,200.12,73.907Z" transform="translate(0 -16.172)" fill="#1190cb"/>
        <path id="Path_2" data-name="Path 2" d="M360.59,160.44a10,10,0,1,0-3.679-12.14A10.106,10.106,0,0,0,360.59,160.44Z" transform="translate(-209.397 -87.349)" fill="#1190cb"/>
      </g>
    </g>
    <text id="Fi_DS_Dura" data-name="FiDSDura" transform="translate(248 7)" fill="#1190cb" font-size="80" font-family="PMingLiU-ExtB"><tspan x="0" y="64">Fi</tspan><tspan x="0" y="134">DS</tspan><tspan x="0" y="204">Dura</tspan></text>
  </g>
</svg>
